<?xml version="1.0" encoding="UTF-8"?>
<svg id="Camada_2" data-name="Camada 2" xmlns="http://www.w3.org/2000/svg" viewBox="0 0 3469.5 753.75">
  <defs>
    <style>
      .cls-1 {
        fill: #fff;
        stroke-width: 0px;
      }
    </style>
  </defs>
  <g id="ARTY_" data-name="ARTY][">
    <g>
      <path class="cls-1" d="M2195.69,500.76v46.75h-204.37c-30.28,0-45.41-15.58-45.41-46.75v-218.17c0-31.17,15.14-46.75,45.41-46.75h202.59v46.75h-166.97c-8.91,0-14.85,1.49-17.81,4.45-2.97,2.97-4.45,8.91-4.45,17.81v60.11h184.78v46.75h-184.78v66.79c0,8.9,1.48,14.85,4.45,17.81,2.96,2.97,8.9,4.45,17.81,4.45h168.75Z"/>
      <path class="cls-1" d="M2223.73,547.51v-40.07h132.68c5.94,0,11.06-1.78,15.36-5.34,4.3-3.56,6.46-8.9,6.46-16.03,0-4.74-.89-8.83-2.67-12.24-1.78-3.41-4.75-6.23-8.91-8.46-4.16-2.23-7.72-3.85-10.69-4.9-2.97-1.04-7.72-2.37-14.25-4.01-6.53-1.63-10.84-2.74-12.91-3.34l-45.41-12.47c-24.34-6.53-40.9-15.06-49.65-25.6-8.76-10.53-13.13-24.86-13.13-42.97,0-21.37,5.34-36.8,16.03-46.31,10.69-9.5,27.9-14.25,51.65-14.25h133.13v40.07h-125.12c-8.91,0-15.29,1.49-19.15,4.45-3.86,2.97-5.79,8.61-5.79,16.92,0,6.23,2.15,11.51,6.46,15.81,4.3,4.31,8.46,7.2,12.47,8.68,4.01,1.49,10.02,3.42,18.03,5.79l50.76,14.25c10.39,2.97,18.4,5.42,24.04,7.35,5.63,1.93,12.09,4.75,19.37,8.46,7.27,3.71,12.76,7.79,16.47,12.25,3.71,4.45,6.9,10.24,9.57,17.36,2.67,7.12,4.01,15.29,4.01,24.49,0,19.59-4.31,34.51-12.91,44.75-8.61,10.24-23.6,15.36-44.97,15.36h-150.94Z"/>
      <path class="cls-1" d="M2595.96,547.51h-32.5c-28.2,0-49.72-5.93-64.56-17.81-14.85-11.87-22.26-31.61-22.26-59.22v-118.88h-32.5v-40.07h32.5v-75.69h52.09v75.69h67.23v40.07h-67.23v108.2c0,17.22,4.45,29.46,13.36,36.73,8.9,7.28,22.55,10.91,40.96,10.91h12.91v40.07Z"/>
      <path class="cls-1" d="M2834.61,311.53v195.91c0,26.71-13.36,40.07-40.07,40.07h-86.38c-29.09,0-51.65-6.08-67.68-18.26-16.03-12.17-24.04-32.95-24.04-62.33v-155.39h52.1v141.59c0,18.41,3.85,32.06,11.58,40.96,7.72,8.9,20.33,13.36,37.85,13.36h51.2c8.91,0,13.36-4.45,13.36-13.36v-182.55h52.09ZM2752.24,206.01l28.5,33.39-73.91,58.77-28.05-32.95,73.47-59.22Z"/>
      <path class="cls-1" d="M3087.51,235.84v271.6c0,26.71-13.36,40.07-40.07,40.07h-82.37c-35.62,0-60.63-10.09-75.02-30.28-14.4-20.18-21.6-49.57-21.6-88.16s7.12-67.82,21.37-87.71c14.25-19.88,39.33-29.83,75.25-29.83h70.35v-75.69h52.1ZM3035.41,351.6h-57.44c-12.17,0-22.12,1.78-29.83,5.34-7.72,3.56-13.36,9.2-16.92,16.92-3.56,7.72-5.94,15.66-7.12,23.82-1.19,8.17-1.78,18.63-1.78,31.39s.59,23.23,1.78,31.39c1.18,8.17,3.56,16.18,7.12,24.04,3.56,7.87,9.2,13.66,16.92,17.36,7.72,3.71,17.66,5.57,29.83,5.57h44.08c8.9,0,13.36-4.45,13.36-13.36v-142.48Z"/>
      <path class="cls-1" d="M3180.56,280.36h-52.09v-48.09h52.09v48.09ZM3128.47,547.51v-235.98h52.09v235.98h-52.09Z"/>
      <g>
        <path class="cls-1" d="M1099.48,513.67l66.79-257.36c5.34-20.18,15.87-30.28,31.61-30.28s26.27,10.09,31.61,30.28l66.79,257.36c1.48,5.34,4.3,8.01,8.46,8.01s6.68-3.26,7.57-9.8l70.35-282.29h24.49l-73.91,288.97c-4.75,17.52-14.55,26.27-29.39,26.27-9.5,0-16.47-2.6-20.93-7.79-4.45-5.19-7.87-12.09-10.24-20.7l-67.68-256.02c-1.19-5.93-3.56-8.9-7.12-8.9s-5.94,2.97-7.12,8.9l-67.68,256.02c-1.49,5.34-3.12,9.8-4.9,13.36-1.78,3.56-4.97,6.98-9.57,10.24-4.6,3.26-10.17,4.9-16.7,4.9-14.85,0-24.64-8.75-29.39-26.27l-73.91-288.97h24.49l70.35,282.29c.89,6.53,3.41,9.8,7.57,9.8s6.97-2.67,8.46-8.01Z"/>
        <path class="cls-1" d="M1620.42,541.28h-115.76c-30.28,0-51.43-10.09-63.45-30.28-12.02-20.18-18.03-48.83-18.03-85.93,0-42.15,7.35-73.09,22.04-92.84,14.69-19.74,41.03-29.61,79.03-29.61,67.68,0,101.52,29.98,101.52,89.94,0,13.96-2.38,23.9-7.12,29.83-4.75,5.94-13.66,8.9-26.72,8.9h-144.71c0,11.88.67,22.42,2,31.61,1.34,9.2,3.85,18.48,7.57,27.83,3.71,9.35,9.64,16.63,17.81,21.82,8.16,5.2,18.18,7.79,30.06,7.79h115.76v20.93ZM1447.22,410.38h144.71c6.53,0,9.8-3.56,9.8-10.69v-3.12c0-27.61-6.31-46.67-18.92-57.22-12.62-10.53-31.99-15.81-58.11-15.81s-47.05,6.31-59.22,18.92c-12.17,12.62-18.26,35.25-18.26,67.9Z"/>
        <path class="cls-1" d="M1763.34,541.28h-49.87c-16.63,0-28.72-2.3-36.29-6.9-7.57-4.6-11.35-14.62-11.35-30.05V229.6h23.15v75.69h74.36c36.21,0,61.37,9.43,75.47,28.27,14.09,18.85,21.15,48.31,21.15,88.38s-7.06,70.35-21.15,89.94c-14.1,19.59-39.26,29.39-75.47,29.39ZM1688.98,326.22v175.87c0,6.83.89,11.58,2.67,14.25,1.78,2.67,6.38,4.01,13.8,4.01h57.88c15.14,0,27.68-2.3,37.62-6.9,9.94-4.6,17.37-11.58,22.26-20.93,4.9-9.35,8.24-19.44,10.02-30.28,1.78-10.83,2.67-24.27,2.67-40.3,0-32.35-4.83-56.39-14.47-72.13-9.65-15.73-29.02-23.6-58.11-23.6h-74.36Z"/>
      </g>
      <path class="cls-1" d="M3439.67,333.11c-19.89-17.51-51.8-26.27-95.73-26.27s-75.85,8.76-95.73,26.27c-19.89,17.52-29.83,48.83-29.83,93.95s9.86,77.33,29.61,94.84c19.74,17.52,51.72,26.27,95.95,26.27s76.21-8.75,95.95-26.27c19.74-17.51,29.61-49.12,29.61-94.84s-9.95-76.43-29.83-93.95ZM3337.94,487.09h-39.3l-48.68-59.58,48.68-59.58h39.3l-48.68,59.58,48.68,59.58ZM3349.94,367.92h39.3l48.68,59.58-48.68,59.58h-39.3l48.68-59.58-48.68-59.58Z"/>
    </g>
  </g>
  <g id="Camada_6" data-name="Camada 6">
    <g>
      <path class="cls-1" d="M753.7,579.91v-73.72s0,0,0,0V180.5h0s0-36.3,0-36.3c0-.05,0-.1,0-.15v-6.46h-.15C750.09,61.16,686.82.05,609.55.05H211.15s0-.05,0-.05l-5.74.04h-7.47s0,0,0,0h-24.09c-23.37,0-46.1,4.62-67.54,13.73-20.68,8.78-39.27,21.34-55.25,37.33-15.98,15.98-28.54,34.57-37.33,55.25C4.62,127.8,0,150.52,0,173.9v418.88c0,21.64,4.28,42.69,12.71,62.54,8.13,19.15,19.76,36.36,34.56,51.16,14.8,14.8,32.01,26.43,51.16,34.56,14.6,6.2,29.95,10.18,45.63,11.83,5.57.59,11.26.88,16.91.88h418.88c23.37,0,46.1-4.62,67.54-13.73,20.68-8.79,39.27-21.34,55.25-37.33,15.98-15.98,28.54-34.57,37.33-55.25,9.11-21.44,13.73-44.16,13.73-67.54ZM579.85,27.2c80.82,0,146.59,65.7,146.69,146.5v326.92c-.56,73.86-60.83,133.78-134.82,133.78H229.94c-60.98,0-110.6-49.62-110.6-110.59V112.39c0-46.67,37.72-84.69,84.28-85.19h376.23Z"/>
      <path class="cls-1" d="M219.56,259.74h27.08s2.4,0,2.4,0v-61.78s55.55,0,55.55,0h2.4s0-26.36,0-26.36h-57.95s0-26.13,0-26.13c0-4.85.95-6.27,1.24-6.59.27-.3,1.48-1.27,5.7-1.27h70.1s2.4,0,2.4,0v-26.36s-87.46,0-87.46,0c-7.04,0-12.46,2.09-16.1,6.2-3.56,4.03-5.37,10-5.37,17.75v124.52Z"/>
      <path class="cls-1" d="M333.03,168.47c0,10.67,2.35,18.12,7,22.14,4.54,3.93,11.17,5.92,19.71,5.92h36.64c4.46,0,7.52,1.25,9.1,3.71,1.77,2.77,2.71,7.47,2.71,13.59,0,7.05-.96,12.23-2.84,15.4-1.67,2.8-4.6,4.16-8.96,4.16h-60.19s-2.4,0-2.4,0v26.36s73.25,0,73.25,0c5.19,0,9.77-.9,13.63-2.68,3.89-1.8,7.02-4.21,9.31-7.18,2.22-2.88,4.02-6.52,5.35-10.82,1.29-4.18,2.14-8.38,2.53-12.49.38-4.03.57-8.66.57-13.77,0-13.11-2.29-23.51-6.8-30.91-4.75-7.78-13.02-11.72-24.58-11.72h-37.2c-2.98,0-4.98-.61-5.8-1.76-.69-.98-1.52-3.15-1.52-7.95v-17.86c0-2.31.39-3.33.62-3.74.38-.67.7-.92.83-.96.39-.13,1.11-.29,2.32-.29h65.43s2.4,0,2.4,0v-26.36s-81.29,0-81.29,0c-6.42,0-11.4,1.93-14.78,5.73-3.32,3.72-5,8.82-5,15.14v36.33Z"/>
    </g>
  </g>
</svg>