<?xml version="1.0" encoding="UTF-8"?>
<svg id="CLOUDFLARE" xmlns="http://www.w3.org/2000/svg" viewBox="0 0 300 200">
  <defs>
    <style>
      .cls-1 {
        fill: #fefefe;
      }

      .cls-1, .cls-2, .cls-3 {
        stroke-width: 0px;
      }

      .cls-2 {
        fill: #f48120;
      }

      .cls-3 {
        fill: #faad3f;
      }
    </style>
  </defs>
  <path class="cls-1" d="M228.16,132.16c-.33,0-.67,0-1,0,.33,0,.67,0,1,0,.67,0,1.33-.03,2,0-.66-.04-1.33,0-2,0Z"/>
  <g>
    <path class="cls-1" d="M268.12,111.5c.05,3.16.02,6.32.01,9.48,0,2.88,0,5.77,0,8.65-.02-6.05.04-12.09-.01-18.14Z"/>
    <path class="cls-1" d="M40.48,111.52c.05,3.16.02,6.32.01,9.48,0,2.94,0,5.87,0,8.81-.02-6.09.04-12.19-.01-18.29Z"/>
    <path class="cls-1" d="M156.27,120.88c0-3.1.04-6.21-.02-9.31.06,3.1.02,6.21.02,9.31,0,2.33-.03,4.66,0,6.98-.04-2.33,0-4.66,0-6.98Z"/>
    <path class="cls-1" d="M182.67,111.51c.05,3.16.02,6.32.01,9.48,0,2.99,0,5.99,0,8.98,0-2.99,0-5.99,0-8.98,0-3.16.03-6.32-.01-9.48Z"/>
    <path class="cls-2" d="M247.77,95.84c.27-1.18.54-2.41.49-3.6-.2-3.95-3.32-6.7-7.74-6.96-.94-.06-1.89-.03-2.84-.04-14.73-.13-29.47-.27-44.2-.4-.44,0-.93.09-1.32-.06-.45-.17-.82-.56-1.23-.85.43-.36.82-.79,1.29-1.07.25-.15.65-.05.99-.05,15.62-.16,31.25-.49,46.87-.55,11.08-.06,15.06-7.92,18.41-17.02.26-.59.63-1.13.94-1.69-.3-.57-.72-1.11-.9-1.72-8.11-29.56-49.43-31.83-60.99-3.57-.65,1.6-.62,1.54-2.14.76-10.3-6.01-23.1,2.62-21.55,14.41.12,1.26-.05,1.7-1.43,1.88-10.96,1.38-18.52,10.01-18.46,20.92.02,3.39.2,3.58,3.55,3.58,30.29-.13,60.56.43,90.84-.46,13.43-.95,27.05.44,40.45-.48-12.82-.02-25.64-.03-38.45-.05-3.33.21-3.3.22-2.57-2.95Z"/>
    <path class="cls-3" d="M281.4,71.17c-5.68-5.07-12.34-7.52-20.03-6.89-.85,2.92-1.92,5.8-2.5,8.77-1.08,5.51,3.03,8.53,7.11,8.83,3.21.24,6.42.4,9.63.62.67.05,1.67-.17,1.63.88-.03.95-.9,1.1-1.74,1.15-3.49.19-6.97.5-10.46.58-5.94.14-14.22,6.59-14.7,13.69,12.82.02,25.64.03,38.45.05,3.75-9.62.2-20.98-7.4-27.67Z"/>
    <path class="cls-1" d="M255.71,125.45c-.59-.83-.5-1.34.42-1.83,5.72-3.3,3.86-12.69-2.92-13.32-3.93-.54-7.97-.31-11.95-.46-1.33-.05-1.56.66-1.55,1.76.04,6.26,0,12.53.01,18.79,0,.06,0,.11,0,.17-.28,2.55,3,1.28,4.52,1.61,1.18.06,1.58-.52,1.54-1.61-.04-1.16.04-2.33-.01-3.49-.06-1.27.56-1.58,1.72-1.6,1.66-.03,2.08,1.29,2.75,2.31q3.03,4.59,8.29,4.4c.06,0,.11,0,.17,0,1.28-.08,1.4-.26.68-1.36-1.19-1.81-2.41-3.59-3.67-5.35ZM251.71,120.1c-1.65.38-3.36.48-5.04.68-.15.02-.44-.08-.45-.15-.14-1.39-.38-2.79-.34-4.18.03-1.08,1.06-.89,1.81-.93.33-.02.66,0,1,0,0-.04.01-.07.02-.11.92.14,1.87.19,2.77.43.99.27,1.58.96,1.62,2.05.04,1.07-.41,1.99-1.39,2.21Z"/>
    <path class="cls-1" d="M76.26,109.47c-6.95-.45-12.24,5.07-12.14,11.29.24,15.7,23.59,15.41,23.96.15,0-6.9-5.23-11.72-11.82-11.44ZM76.62,126.51c-8.07.29-7.94-11.95-.31-11.83,3.18.09,5.58,2.82,5.52,6.27-.06,3.53-2,5.59-5.22,5.56Z"/>
    <path class="cls-1" d="M137.97,110.23c-3.29-.38-6.64-.31-9.97-.38-1.64-.03-1.75.13-1.76,1.84-.02,3.05,0,6.1,0,9.14,0,3.21,0,6.43,0,9.64,0,.8-.01,1.67,1.13,1.64,4.03-.13,8.13.61,12.09-.62,7-2.19,9.41-8.49,7.14-14.83-1.37-3.85-4.61-5.97-8.63-6.44ZM138.14,125.66c-1.5.57-3.22.62-4.85.78-.9.09-1.04-.64-1.05-1.36-.01-2.83.02-5.65,0-8.48-.02-.97.41-1.51,1.39-1.39,1.37.16,2.79.23,4.08.65,4.08,1.18,4.47,8.36.43,9.8Z"/>
    <path class="cls-1" d="M126.25,111.7c-.02,6.26,0,12.53,0,18.79,0-3.21,0-6.43,0-9.64,0-3.05-.01-6.1,0-9.14Z"/>
    <path class="cls-1" d="M285,126.8c-3,.06-6-.01-9,.03-1.15.02-1.58-.44-1.57-1.58.01-1.1.19-1.83,1.54-1.79,1.94.06,3.89.01,5.83.01,3.51,0,3.47,0,3.35-3.46-.04-1.15-.49-1.57-1.61-1.56-2.5.04-5-.04-7.5.02-1.43.04-1.62-.72-1.61-1.88,0-1.12.25-1.79,1.57-1.76,2.39.06,4.78.01,7.17.01,3.4,0,3.36,0,3.29-3.37-.02-1.21-.45-1.67-1.67-1.66-5,.04-10,.04-15.01,0-1.24-.01-1.67.48-1.65,1.68.06,6.04,0,12.09.01,18.14q0,2.51,2.45,2.52c4.22,0,8.45.02,12.67,0,3.78-.03,3.47.59,3.52-3.62.02-1.3-.48-1.76-1.77-1.73Z"/>
    <path class="cls-1" d="M18.91,109.98c-4.58,1.04-7.62,3.88-8.81,8.38-2.29,8.65,5.76,16.28,14.62,13.97,3.86-1.01,6.54-3.41,8.17-7.01.55-1.22.38-1.49-.92-1.53-1.95-.08-3.99-.3-5.62,1-.82.54-1.47,1.42-2.34,1.81-2.62,1.17-5.51.09-7.01-2.46-1.45-2.48-.83-5.92,1.4-7.69,2.19-1.74,5.46-1.63,7.38.56,1.31,1.49,2.69,2.21,4.25,1.83.76,0,1.15,0,1.54,0,2.26,0,2.41-.26,1.4-2.37-2.56-5.33-8-7.88-14.06-6.5Z"/>
    <path class="cls-1" d="M230.7,129.76c-2.32-5.45-4.65-10.91-6.96-16.36-1.67-3.93-1.65-3.88-6-3.9-1.41,0-2.08.58-2.59,1.8-2.58,6.13-5.22,12.23-7.85,18.33-1.09,2.53-1.1,2.52,1.59,2.53.39,0,.79-.05,1.16,0,2,.32,3.3-.33,3.75-2.44.26-1.2,1.12-1.64,2.36-1.58,1.66.08,3.34.11,4.99,0,1.59-.11,2.44.54,2.97,2.01.72,2.02.8,1.99,3.02,1.99.33,0,.67,0,1,0,.67,0,1.33-.03,2,0,1.03.06,1.52-.23.98-1.32-.17-.35-.28-.72-.43-1.08ZM220.54,123.42c-.08.09-.32.05-.48.05-3.47.01-3.95.29-2.31-3.1.36-.75.65-1.53.99-2.29.03-.08.17-.11.46-.3.67,1.6,1.35,3.14,1.93,4.73.08.21-.34.63-.58.91Z"/>
    <path class="cls-1" d="M112.47,109.85c-2.18-.02-2.2.02-2.21,2.25,0,3.72.02,7.43-.03,11.15-.02,2.07-.9,3.13-2.77,3.61-7.51,1.72-5.22-8.34-5.57-12.86-.08-4.78.85-4.08-4.47-4.16-1.13-.02-1.62.42-1.6,1.56.04,2.11.01,4.22.01,6.32h.02c.09,4.33-.86,9.32,2.87,12.49,1.74,1.6,3.86,2.17,6.09,2.4,6.83.73,11.69-2.74,11.75-9.77.03-2.99.03-5.99,0-8.99-.05-4.62.65-3.96-4.1-4.01Z"/>
    <path class="cls-1" d="M172.35,109.83c-4.78.04-9.55.04-14.33,0-1.29-.01-1.79.43-1.76,1.74.06,3.1.02,6.21.02,9.31,0,2.33-.03,4.66,0,6.98.08,4.95-.87,4.22,4.49,4.3,1.15.02,1.61-.45,1.58-1.58-.04-1.61-.03-3.22,0-4.82.03-1.7.21-1.87,1.95-1.89,1.89-.02,3.78,0,5.67,0q3.08,0,2.98-3.16c-.05-1.64-.21-1.83-1.84-1.85-2.33-.03-4.67-.05-7,0-1.26.03-1.84-.38-1.79-1.71.06-1.61.24-1.93,1.74-1.95,2.11-.03,4.22,0,6.33-.02,3.94-.04,3.56.55,3.61-3.7.02-1.22-.45-1.67-1.67-1.66Z"/>
    <path class="cls-1" d="M55.84,126.8c-2.39.05-4.77.03-7.16,0-1.76-.01-1.86-.12-1.87-1.92-.01-4.43-.03-8.87.01-13.3.01-1.27-.39-1.86-1.72-1.76-.99.07-2,.06-3,0-1.25-.08-1.65.51-1.63,1.69.06,6.09-.01,12.19.01,18.29,0,2.34,0,2.35,2.27,2.35,3.72,0,7.44.02,11.16,0,3.94-.03,3.53.59,3.59-3.7.02-1.23-.46-1.67-1.67-1.65Z"/>
    <path class="cls-1" d="M198.04,126.8c-2.39.05-4.78.03-7.16,0-1.77-.01-1.87-.11-1.87-1.9-.01-4.43-.03-8.87.01-13.3.01-1.26-.37-1.87-1.71-1.77-.99.07-2,.06-3,0-1.25-.08-1.66.49-1.64,1.68.05,3.16.02,6.32.01,9.48,0,2.99,0,5.99,0,8.98,0,2.18.02,2.19,2.27,2.19,3.72,0,7.44.02,11.16,0,3.92-.03,3.55.59,3.6-3.7.01-1.22-.46-1.68-1.67-1.65Z"/>
    <path class="cls-1" d="M132.23,116.61c.03,2.82,0,5.65,0,8.48,0-1.44,0-2.88,0-4.32,0-1.39.02-2.77,0-4.16Z"/>
  </g>
</svg>