<?xml version="1.0" encoding="UTF-8"?>
<svg id="MAKE" xmlns="http://www.w3.org/2000/svg" xmlns:xlink="http://www.w3.org/1999/xlink" viewBox="0 0 300 200">
  <defs>
    <style>
      .cls-1 {
        fill: #fff;
      }

      .cls-1, .cls-2, .cls-3, .cls-4 {
        stroke-width: 0px;
      }

      .cls-2 {
        fill: url(#Gradiente_sem_nome_6);
      }

      .cls-3 {
        fill: url(#Gradiente_sem_nome_7);
      }

      .cls-4 {
        fill: url(#Gradiente_sem_nome_3);
      }
    </style>
    <linearGradient id="Gradiente_sem_nome_7" data-name="Gradiente sem nome 7" x1="88.84" y1="142.74" x2="-3569.84" y2="-1918.19" gradientUnits="userSpaceOnUse">
      <stop offset="0" stop-color="#c120ec"/>
      <stop offset="1" stop-color="#f0f"/>
    </linearGradient>
    <linearGradient id="Gradiente_sem_nome_6" data-name="Gradiente sem nome 6" x1="698.93" y1="-172.07" x2="651.15" y2="-190.08" gradientTransform="translate(-347.09 4.36) scale(.59 -.59)" gradientUnits="userSpaceOnUse">
      <stop offset="0" stop-color="#7424cb"/>
      <stop offset="1" stop-color="#b52deb"/>
    </linearGradient>
    <linearGradient id="Gradiente_sem_nome_3" data-name="Gradiente sem nome 3" x1="724.62" y1="-173.71" x2="685.4" y2="-188.52" gradientTransform="translate(-347.09 4.36) scale(.59 -.59)" gradientUnits="userSpaceOnUse">
      <stop offset="0" stop-color="#6000c6"/>
      <stop offset="1" stop-color="#9319dc"/>
    </linearGradient>
  </defs>
  <g>
    <path class="cls-3" d="M47.86,96.78c-.37-.84-6.89-3.88-8.1-4.39-.78-.43-1.79-1.2-2.71-.92-.36.11-.52.3-.72.61-1.45,2.24-2.53,4.94-3.75,7.32-2.97,5.8-5.91,11.63-8.8,17.48-.87,1.8-4.58,8.01-4.21,9.61.24.38.5.62.87.86.99.65,8.13,4.23,9.21,4.49.25.06.42.05.66-.01.55-.37.9-.83,1.23-1.41,2.2-3.78,4.06-8.14,6.05-12.09,1.44-2.79,2.85-5.6,4.24-8.41.7-1.4,1.47-2.81,2.06-4.26.03-.03.07-.06.09-.09.88-1.19,1.43-2.92,2.1-4.26.51-1.02,1.2-2,1.6-3.07.13-.35.35-1.1.19-1.46Z"/>
    <path class="cls-2" d="M51.44,91.11c-.51.17-.78.33-1.04.81-.83,1.54-1.03,4.59-1.38,6.37l-2.56,12.84-2.08,10.52c-.37,1.87-.83,3.77-1.09,5.65-.11.8-.14,1.54.1,2.31.87.85,9.29,2.19,11.07,2.57.54-.23,1-.38,1.22-.98.45-1.2.6-2.7.85-3.97l1.65-8.4,2.93-14.84c.52-2.61,1.13-5.23,1.53-7.86.1-.62.32-2,.05-2.57-1.64-.85-9.04-2.09-11.25-2.46Z"/>
    <path class="cls-4" d="M77.19,122.42l.02-10.67v-11.52c0-2.01.09-4.05-.01-6.06-.04-.76-.16-1.44-.44-2.14-.92-.76-9.66-.41-11.33-.35-.43.14-.77.29-1,.7-.21.37-.18,1-.19,1.42-.16,7.21,0,14.46.01,21.68v9.82c0,1.45-.1,2.92-.03,4.36.02.42.07.82.22,1.22.06.16.22.28.37.36,1.27.64,9.91.44,11.61.28.73-.67.79-1.22.83-2.18.09-2.29-.03-4.63-.04-6.93Z"/>
  </g>
  <path class="cls-1" d="M260.06,90.58c5.35-.05,10.07,1.05,14.18,4.65,4.47,3.91,6.29,9.43,6.67,15.21.08,1.3.32,3.07-.6,4.12-.39.22-.77.26-1.21.29-2.7.16-5.48.02-8.19.02h-17.44c.65,1.4.76,2.86,1.73,4.13,1.57,2.04,3.72,3.19,6.27,3.5,2.47.3,5.89-.35,7.78-2.11.7-.65,1.26-1.54,2.03-2.1.18-.13.47-.31.7-.27,1.04.18,5.57,2.99,6.19,3.85.41.16.86.39,1.21.67.35.29.58.67.59,1.13.03.86-.56,1.61-1.09,2.23-3.83,4.45-9.05,6.29-14.78,6.69-5.92.41-12.18-1.15-16.71-5.12-4.06-3.56-6.19-8.64-6.53-13.98-.37-5.87,1.03-11.78,5-16.26,3.64-4.1,8.77-6.32,14.2-6.64ZM260.01,100.53c-1.86.37-3.56.94-4.68,2.59-.88,1.29-.96,2.65-1.62,3.78h7.7s6.24,0,6.24,0c.3-.84-.13-2.09-.48-2.87-.68-1.48-1.95-2.53-3.47-3.07-1.19-.42-2.44-.52-3.69-.44Z"/>
  <path class="cls-1" d="M180.59,90.42c3.22-.17,6.84.36,9.86,1.5,3.33,1.26,6.2,3.62,7.66,6.93.72,1.62,1.05,3.32,1.2,5.08.31,3.71.06,7.59.05,11.33,0,4.7.18,9.46,0,14.15-.02.56-.05,1.14-.27,1.66-.09.21-.4.37-.6.45-.88.36-10.19.43-11.08.04-.74-.74-.47-2.18-.8-3.13-.01-.03-.03-.07-.04-.1-.23.73-1.9,1.63-2.59,2.04-.22.13-.44.25-.66.37-.22.12-.45.23-.68.34-.23.11-.46.21-.7.31-.23.1-.47.19-.71.27-.24.08-.48.16-.72.24-.24.07-.49.14-.73.2-.25.06-.49.11-.74.16-.25.05-.5.09-.75.13-.25.04-.5.07-.75.09-.25.02-.51.04-.76.05-.25.01-.51.02-.76.01s-.51,0-.76-.02c-.25-.01-.51-.04-.76-.06-.25-.03-.5-.06-.75-.1-.25-.04-.5-.08-.75-.14-.25-.05-.5-.11-.74-.17-3.57-.89-6.53-3.01-8.44-6.17-.22-.39-.39-.8-.57-1.21-1.21-2.87-1.3-6.48-.11-9.37,2.79-6.75,13.22-8.28,19.51-9.92,1.16-.3,2.63-.48,3.71-.96.05-.02.1-.04.14-.07,0-.35-.04-.73-.17-1.06-.4-1.03-1.25-1.76-2.25-2.18-1.17-.5-2.53-.57-3.79-.5-5.36.33-4.33,3.34-6.39,4.15-1.42.04-9.24-1.75-10.27-2.53-.24-.18-.27-.38-.3-.67-.14-1.51,1.72-4.05,2.69-5.19,3.69-4.3,9.16-5.55,14.56-5.97ZM185.87,113.27s-.06.03-.09.04c-2.7,1.15-9.01,1.59-10.24,4.43-.32.75-.32,1.75,0,2.51.23.54.6.94,1.04,1.31,1.56.89,3.09,1.02,4.83.56,1.14-.3,4.19-1.7,4.96-2.65.27-.71.42-5.44.15-6.12,0-.02-.02-.05-.04-.07-.21-.01-.41-.03-.62,0Z"/>
  <path class="cls-1" d="M204.49,78.54c1.73-.1,9.77-.34,10.96.21.29.13.34.52.41.8.56,2.11.25,9.63.25,12.18,0,3.36.2,6.86-.03,10.2-.02.24-.08.43-.21.64.76-.35,11.21-9.87,12-10.85,2.19-.16,4.46-.04,6.66-.05,2.04,0,4.22-.15,6.24.07.49.05.95.12,1.24.55.24.35.28.83.18,1.23-.19.75-11.17,10.7-12.46,11.49.08.06.17.12.24.19.67.67,11.9,21.33,13.06,23.56.09.18.11.3.12.49.04.03.07.06.1.1.27.27.41.66.41,1.04,0,.38-.18.69-.47.93-.27.23-.62.36-.97.41-1.54.22-3.29.04-4.86.05-2.05,0-4.16.13-6.21,0-.52-.03-1.02-.07-1.41-.45-.96-.93-1.59-2.58-2.2-3.76l-4.87-9.39c-.83-1.61-1.67-3.81-2.86-5.14-.02-.03-.05-.05-.08-.08-.2.62-3.16,3.1-3.83,3.47.35.57.27,12.85.09,14.05-.06.43-.14.74-.53.99-.83.54-9.63.48-10.94.23-.31-.06-.78-.15-.93-.44-.28-.54-.27-1.69-.29-2.31-.19-8.97,0-17.99,0-26.96v-16.78c.02-1.47-.09-2.94-.06-4.4.01-.47.06-1.05.25-1.48.21-.46.52-.59.98-.76Z"/>
  <path class="cls-1" d="M118.49,90.83c1.15-.05,2.31-.09,3.46.03,4,.42,7.06,2.28,9.57,5.38.14-.2.28-.4.44-.58,2.6-3.02,6.85-4.6,10.75-4.84,4.23-.26,8.74.62,11.98,3.53,2.94,2.63,4.3,6.54,4.51,10.4.28,5.19.03,10.51.02,15.72,0,1.96-.02,3.92,0,5.87.02,1.18.14,2.43.04,3.61-.04.45-.17.93-.5,1.26-.32.33-.81.46-1.25.53-1.38.21-2.97.04-4.37.03-1.59-.01-3.2.06-4.79.03-.59-.01-1.52-.1-1.85-.67-.64-1.09-.31-3.32-.31-4.57l.03-11.95c0-2.43.23-5.11-.23-7.5-.21-1.13-.63-2.24-1.45-3.07-1.09-1.09-2.5-1.6-4.03-1.6-1.85,0-3.55.77-4.84,2.08-.64.65-1.23,1.5-1.42,2.4-.38,1.86-.06,4.25-.06,6.18v14.79c0,.75.06,1.54-.01,2.28-.04.38-.17.94-.49,1.17-1.01.73-9.73.62-11.21.29-.47-.1-1.15-.28-1.35-.77-.34-.84-.03-2.56-.03-3.5v-12.77c0-2.24.19-4.63-.1-6.84-.14-1.05-.37-2.08-.96-2.97-.81-1.23-2.03-1.96-3.46-2.23-.11-.02-.21-.04-.32-.05-.11-.02-.21-.03-.32-.04-.11,0-.22-.02-.32-.02-.11,0-.22,0-.32,0-.11,0-.22,0-.32.01-.11,0-.22.02-.32.03-.11.01-.21.03-.32.04-.11.02-.21.04-.32.06s-.21.05-.32.08c-.1.03-.21.06-.31.09-.1.03-.21.07-.31.11-.1.04-.2.08-.3.12-.1.04-.2.09-.29.14-.1.05-.19.1-.29.15-.09.05-.19.11-.28.16-.09.06-.18.12-.27.18-.98.68-1.99,1.75-2.36,2.92-.45,1.41-.2,3.4-.2,4.89l.03,12.79c0,1.97.27,4.38-.12,6.3-.09.43-.22.72-.6.95-.4.25-.94.31-1.4.34-1.16.09-8.97.09-9.69-.11-.46-.12-.83-.35-1.05-.78-.2-.39-.27-.87-.28-1.3-.06-1.84.04-3.71.04-5.55v-13.02s0-11.19,0-11.19c0-1.96-.08-3.94.02-5.9.03-.61.11-1.2.31-1.78.43-.41,1.03-.46,1.6-.5,1.82-.12,3.72.05,5.55.04,1.24-.01,2.65-.25,3.87-.1.42.05.81.18,1.12.48.88.86.64,2.58.62,3.7,2.69-2.96,5.47-4.37,9.39-4.93Z"/>
</svg>