<?xml version="1.0" encoding="UTF-8"?>
<svg id="MANY_" data-name="MANY]" xmlns="http://www.w3.org/2000/svg" viewBox="0 0 300 200">
  <defs>
    <style>
      .cls-1 {
        fill: #fff;
      }

      .cls-1, .cls-2 {
        stroke-width: 0px;
      }

      .cls-2 {
        fill: #1e62f4;
      }
    </style>
  </defs>
  <path class="cls-1" d="M246.4,104.26c.28.37.3.57.35,1.04.26,2.67.06,5.55.06,8.24,0,1.74.2,3.78-.05,5.48-.02.14-.08.26-.15.38-.69.01-4.34.26-4.71-.08-.19-.18-.27-.71-.33-.96.03.03.06.05.09.09.09.13.19.26.31.37.69.63,3.27.34,4.17.32.73-1.06-.02-12.59.28-14.87Z"/>
  <path class="cls-2" d="M49.25,93c.27.02.52.06.78.16.51.2.94.56,1.15,1.07.17.41.15.89-.02,1.3-.27.66-.79.96-1.42,1.21-.32,0-.69,0-.98-.14-.48-.22-.89-.61-1.07-1.11-.16-.45-.11-.96.1-1.39.32-.65.82-.87,1.47-1.1Z"/>
  <path class="cls-2" d="M34.55,92.98c.29.01.54.05.81.16.53.2.97.56,1.2,1.09.02.05.04.11.06.16.02.05.03.11.04.17.01.06.02.11.03.17,0,.06.01.11.01.17,0,.06,0,.11,0,.17,0,.06-.01.11-.02.17-.01.06-.02.11-.04.17s-.03.11-.06.16c-.26.64-.74.93-1.35,1.18-.29,0-.63,0-.91-.07-.45-.13-.93-.52-1.15-.93-.23-.43-.24-.94-.08-1.4.25-.71.81-1.05,1.46-1.36Z"/>
  <path class="cls-2" d="M38.39,101.82c1.81-.1,6.22-.39,7.7.3.25.3.25.3.22.69-.24.46-.61.69-1.02.97-.28.09-.56.18-.84.25-1.7.42-4.57.34-6.08-.58-.35-.22-.47-.36-.57-.76.15-.45.25-.56.59-.87Z"/>
  <path class="cls-1" d="M275.12,92.39c.88-.07,1.79-.03,2.67-.02.08.14.14.29.17.45.17.88.24,5.37-.19,6,1.87.06,3.75.05,5.63.06.07.1.13.21.16.33.19.76.23,2.62-.18,3.28-1.86.03-3.71.04-5.57.03.9,1.47-.44,9.43.42,11.88.16.47.43.97.89,1.19.43.2.92-.06,1.33-.21.58-.21,1.14-.4,1.73-.11.82.4,1.51,1.66,1.81,2.5-.13.32-.31.37-.59.54,0,.02-.01.03-.02.05-.16.34-1.26.77-1.61.9-1.82.67-4.39.71-6.14-.11-3.09-1.45-2.71-5.77-2.7-8.57l.03-5.2c0-.87.13-1.98-.18-2.8,0-.01,0-.02-.01-.04-.7,0-1.63.1-2.28-.17-.83-.34-.47-2.21-.8-2.96,0-.01,0-.02-.02-.03,1.11-.09,2.24-.32,3.33-.53.75-.9.8-3.71,1.11-4.94.19-.76.32-1.11.99-1.52Z"/>
  <path class="cls-1" d="M178.27,98.7c1.41-.02,3.65-.34,4.95.12.65.23.97,1.02,1.25,1.61,1,2.12,1.82,4.37,2.71,6.54.59,1.44,1.44,3.07,1.77,4.58.06.26.02.49-.07.74,1.54-1.46,4.07-11.74,5.67-13.21.83-.76,3.66-.38,4.78-.35.02.08.04.17.03.25-.09.83-4.85,11.66-5.29,12.07.01.04.01.05.02.09.09.58-5.61,13.59-6.41,14.71-1.31.78-3.67.4-5.17.33.1-.08.19-.17.27-.26.58-.68,3.71-7.49,3.66-8.13.09-.77-7.2-16.74-8.17-19.09Z"/>
  <path class="cls-1" d="M168.03,98.42c1.8-.14,3.55-.1,5.16.83,1.56.9,2.51,2.44,2.96,4.16.21.82.32,1.67.36,2.51.09,1.65.17,12.86-.18,13.47-1.7.08-3.41.02-5.12,0,.06-.1.11-.2.15-.3.3-.82.21-11.54.04-13.13-.08-.76-.26-1.57-.59-2.27-.28-.59-.77-.92-1.38-1.13-1.6-.57-3.32.06-4.78.75-.13.38-1.02.92-1.34,1.15.31,1.14.29,14.24-.02,14.94-1.73.06-3.48,0-5.21-.01.1-.14.18-.3.22-.47.25-1.22.04-4.57.04-5.96,0-4.53.2-9.15-.01-13.67-.01-.24-.07-.42-.2-.62,1.24.05,2.68-.23,3.87.2.34.12.65.33.8.67.19.44.19,1.11,0,1.55.52-.24.97-.65,1.44-.98,1.21-.85,2.36-1.33,3.78-1.7Z"/>
  <path class="cls-1" d="M257.32,98.42c1.85-.2,3.8-.24,5.56.45,1.73.68,3.02,1.97,3.75,3.67.37.87.57,1.8.66,2.74.15,1.68.22,13.19-.15,14.11-.79.03-1.65.11-2.44.05-1.34-.1-1.31-1.68-2-2.48,0,0-.01-.02-.02-.02-.02.06-.04.12-.08.17-1.02,1.42-3.58,2.35-5.25,2.55-2.56.32-4.32-.28-6.34-1.87-.15-.99-1.02-1.9-1.06-3.24-.05-1.43.42-2.82,1.41-3.86,2.5-2.67,7.43-3.11,10.85-3.2.23-.61.24-1.24.16-1.88-.12-.97-.4-2.15-1.22-2.78-.56-.42-1.25-.5-1.93-.5-2.92.02-3.98,1.62-5.72,1.81-1.47.16-1.81-1.78-2.73-2.5-.01,0-.02-.02-.03-.02,2.72-1.74,3.25-2.45,6.6-3.21ZM260.48,110.77c-1.58.23-4.21.43-5.24,1.82-.39.52-.45,1.13-.36,1.75.09.54.29,1.01.75,1.34.25.18.57.31.85.43,1.67.19,3.43.02,4.79-1.07.29-.24.81-.6.9-.98.41-.64.31-2.29.15-3.02-.03-.13-.07-.25-.12-.37l-1.72.1Z"/>
  <path class="cls-1" d="M145.79,98.29c1.37,0,2.77.22,4,.82,1.69.82,2.85,2.27,3.44,4.03.27.81.41,1.66.47,2.51.11,1.64.19,13.04-.17,13.77-.83.01-1.95.15-2.75-.03-.97-.21-1.22-1.69-1.68-2.43-.06.16-.16.24-.29.35-1.96,1.73-4.28,2.6-6.91,2.42-2.84-.19-3.49-1.06-5.25-3.05.15-.51-.24-1.71-.28-2.34-.08-1.34.37-2.56,1.27-3.55,2.5-2.76,7.46-3.13,10.92-3.29.16-.25.23-.54.24-.83.05-1.13-.26-2.72-1.05-3.59-2.21-2.41-6.69,1.17-8.19,1.05-1.23-.09-1.66-1.76-2.38-2.54l-.03-.03c3.26-2.15,4.6-3.07,8.63-3.28ZM146.86,110.77c-1.58.23-4.15.41-5.19,1.79-.38.51-.53,1.21-.43,1.84.08.51.37.97.79,1.27.25.18.55.31.83.45,1.7.18,3.48-.01,4.86-1.12.28-.22.83-.64.89-1.01.34-.6.33-2.32.15-2.97-.04-.13-.09-.24-.16-.36l-1.73.1Z"/>
  <path class="cls-1" d="M228.46,89.44c1.68-.03,3.36-.03,5.03.01.09.14.16.3.19.47.2,1.11.21,10.27-.17,10.84,1.14-.55,2.06-1.43,3.26-1.91,1.85-.74,4.11-.69,5.94.09,1.39.59,2.82,1.78,3.38,3.21.22.56.55,1.56.31,2.12-.3,2.28.46,13.81-.28,14.87-.9.02-3.48.31-4.17-.32-.12-.11-.21-.24-.31-.37-.03-.04-.05-.06-.09-.09.05-.1.1-.21.12-.32.21-.81.14-11.07,0-12.32-.09-.73-.28-1.46-.67-2.09-.39-.63-.96-1.1-1.69-1.27-2.36-.55-3.95.98-5.75,2.09.03.05.05.1.07.15.26.63.19,14.26-.05,14.81-1.7,0-3.4,0-5.09-.02.07-.15.13-.3.16-.46.16-.91.04-2.02.04-2.95v-6.36s0-12.83,0-12.83c0-2.19.07-4.42-.01-6.61-.01-.29-.06-.5-.23-.75Z"/>
  <path class="cls-1" d="M214.09,89.92c.34-.03.69-.05,1.03-.05.34,0,.69,0,1.03.02.34.02.69.04,1.03.08.34.04.68.09,1.02.15s.68.13,1.01.22c.33.08.66.18.99.28.33.11.65.22.97.35.32.13.64.26.95.41.88.42,2.72,1.36,3.06,2.31,0,.12,0,.23-.05.34-.42.94-1.5,2.38-2.44,2.78-.84.36-2.61-1.2-3.42-1.52-2.3-.92-5.26-.94-7.53.06-2.04.9-3.52,2.63-4.31,4.69-1.16,3-1.15,6.88.18,9.83.95,2.12,2.58,3.81,4.77,4.64,2.18.82,5.39.83,7.45-.29.94-.51,1.74-1.27,2.7-1.7l.04-.02c.46.05.77.19,1.13.48.53.41,1.81,1.54,1.89,2.18-.03.21-.17.41-.29.58-1.76,2.28-5.1,3.55-7.87,3.89-3.92.48-8.01-.25-11.16-2.73-3.05-2.39-4.71-5.93-5.16-9.73-.51-4.29.36-8.79,3.08-12.23,2.49-3.15,6-4.58,9.9-5.04Z"/>
  <path class="cls-2" d="M22.9,142.94c-.61-.54-1.14-1.1-1.19-1.95-.03-.49.13-.94.46-1.31.96-1.06,2.75-.82,4.04-1.06.93-.18,1.84-.44,2.72-.77.34-.13.68-.27,1.02-.41.34-.15.67-.3,1-.47.33-.16.65-.34.97-.52.32-.18.63-.37.94-.57.31-.2.61-.4.91-.62.3-.21.59-.44.88-.66.29-.23.57-.47.84-.71.27-.24.54-.5.8-.75,1.72-1.73,3.33-4.08,3.63-6.56.1-.81.06-1.89.44-2.61.31-.59,1.15-1,1.8-1.04.47-.03.99.2,1.33.51,1.15,1.05.89,3.38,1.35,4.81,1.05,3.24,4.04,6.02,6.84,7.78,1.88,1.18,3.99,2.13,6.18,2.52,1.2.21,2.76.17,3.84.73.56.29.91.82.93,1.45.02.6-.21,1.3-.64,1.73-.17.17-.38.32-.57.45-.01,0-.02.01-.03.02H22.9ZM26.18,142.94h31.88c-7.1-1.92-11.68-4.48-15.91-10.66-3.71,6.08-9.26,8.95-15.96,10.66Z"/>
  <path class="cls-1" d="M127.04,90.37c1.82-.28,3.66-.2,5.5-.18.07.12.14.24.16.38.28,1.34.06,6.87.06,8.59,0,6.34.23,13.14-.02,19.42-.01.32-.05.55-.22.82-1.64.08-3.28.02-4.92,0,.1-.13.18-.29.21-.46.19-.95.13-11.41.01-12.77-.02-.22-.09-.41-.22-.6.07-.11.13-.22.17-.34.25-.91.26-6.06-.15-6.81,0,0,0,.02,0,.03,0,.02,0,.03,0,.05,0,.29-.05.48-.17.74-1.32,2.85-3.01,5.58-4.48,8.36-1.24,2.34-2.36,5.13-3.92,7.26-.46.63-.92.99-1.7,1.1-.73.11-1.61,0-2.19-.49-1.02-.86-1.72-2.66-2.34-3.83-1.08-2.03-6.21-12.35-7.42-13.23-.01,0-.03-.02-.04-.03.11.18.24.38.3.58.29.92.22,17.6.09,19.67-.02.29-.08.52-.22.78-1.61.06-3.22,0-4.83-.01.13-.18.21-.36.23-.58.22-2.42.03-5.04.02-7.49l-.02-15.31c0-1.25-.25-4.85.13-5.82,1.58-.03,3.59-.27,5.11.18.16.07.3.19.42.31.96,1,2.78,4.92,3.53,6.3,2.04,3.77,4.31,7.54,6.12,11.43.21.45.43.91.43,1.42.41-.3,2.2-4.18,2.62-4.98l5.77-10.8c.52-.96,1.74-2.72,1.96-3.7Z"/>
  <path class="cls-2" d="M41.26,68.1c4.25-.07,7.86.72,11.67,2.62,2.25-.36,8.74-2.2,10.52-1.76.44.11.82.33,1.05.73.26.47.27,1.07.21,1.59-.12,1.13-.53,2.28-.82,3.39-.53,2.07-1.07,4.13-1.62,6.2.05.1.1.2.15.3,3.16,6.86,1.01,15.87-3.44,21.65-2.27,2.95-5.4,5.47-6.72,9.03-1.21,3.27-1.11,7.18.35,10.34,1.5,3.25,4.08,5.74,7.46,6.98.2.08.41.15.62.21.21.07.42.13.63.18s.42.1.64.15.43.08.64.12c.22.03.43.06.65.09.22.02.43.04.65.05.22.01.44.02.65.02.22,0,.44,0,.65-.01.22,0,.44-.02.65-.04.22-.02.43-.05.65-.08.22-.03.43-.07.64-.11.21-.04.43-.09.64-.14.21-.05.42-.11.63-.17.21-.06.42-.13.62-.2.21-.07.41-.15.61-.23.2-.08.4-.17.6-.26,2.77-1.29,5.01-3.39,6.06-6.29.95-2.61.89-5.7-.3-8.22-.86-1.81-2.49-3.34-4.39-4.02-1.76-.63-4.11-.51-5.78.29-.9.43-1.69,1.08-2.23,1.92-1.69,2.64.21,4.53-.61,6.78-.14.4-.4.73-.79.91-.49.22-1.24.2-1.73,0-.58-.23-.96-.81-1.19-1.36-.91-2.16-.87-4.72,0-6.88.98-2.42,2.81-4.31,5.22-5.33.18-.07.36-.14.54-.21s.36-.13.55-.18c.18-.06.37-.11.55-.15s.37-.09.56-.13c.19-.04.38-.07.57-.1s.38-.05.57-.07c.19-.02.38-.03.57-.04.19,0,.38-.02.58-.02.19,0,.38,0,.58.01s.38.02.57.04c.19.02.38.04.57.07s.38.06.57.1c.19.04.38.08.56.12.19.05.37.1.56.15.18.05.37.11.55.18.18.06.36.13.54.2,2.98,1.21,5.26,3.54,6.5,6.5,1.5,3.58,1.44,7.82-.03,11.4-1.59,3.88-4.7,6.75-8.55,8.35-.26.11-.53.21-.8.31-.27.1-.54.19-.81.27-.27.08-.55.16-.82.23-.28.07-.55.13-.83.19-.28.06-.56.11-.84.15-.28.04-.56.08-.85.11-.28.03-.57.05-.85.07-.28.02-.57.02-.85.02-.28,0-.57,0-.85-.02-.28-.01-.57-.03-.85-.06-.28-.03-.57-.06-.85-.1-.28-.04-.56-.09-.84-.14-.28-.05-.56-.11-.83-.18-.28-.07-.55-.14-.82-.22-.27-.08-.54-.17-.81-.26-.27-.09-.53-.19-.8-.3-.26-.11-.53-.22-.78-.34-.26-.12-.51-.25-.77-.38s-.5-.27-.75-.42c-.25-.15-.49-.3-.73-.45-.24-.16-.47-.32-.7-.49-.23-.17-.46-.34-.68-.52-.22-.18-.44-.36-.65-.56-.21-.19-.42-.39-.62-.59-.2-.2-.4-.41-.59-.62-.19-.21-.38-.43-.56-.64-.18-.22-.36-.44-.53-.67-.17-.23-.34-.46-.5-.7-.16-.24-.31-.48-.46-.72-.15-.24-.29-.49-.42-.74-.14-.25-.26-.51-.39-.76-.12-.26-.24-.52-.35-.78-2.38-5.76-1.74-12.34,2.09-17.33,2.65-3.45,5.78-6.15,7.49-10.27,2.16-5.2,1.91-9.53-.2-14.64.37-2.57,1.18-5.18,1.89-7.67-1.9.4-6.11,1.6-7.81,1.25-.86-.18-1.78-.76-2.58-1.14-.36-.15-.73-.3-1.1-.43-.37-.13-.75-.25-1.13-.36-.38-.11-.76-.2-1.15-.28s-.77-.15-1.16-.21c-.39-.06-.78-.1-1.18-.13-.39-.03-.79-.05-1.18-.06-.39,0-.79,0-1.18.02-.39.02-.79.05-1.18.1-4.76.57-9.11,2.85-12.09,6.63-4.66,5.93-4.11,14.13-.06,20.24,3.64,5.49,8.17,7.82,9.05,15.11.6,4.97-.78,9.58-3.88,13.5-2.7,3.42-6.94,5.68-11.26,6.18-4.59.54-9.23-.67-12.87-3.55-.19-.15-.38-.31-.56-.47-.18-.16-.36-.33-.54-.49-.18-.17-.35-.34-.52-.52-.17-.18-.33-.36-.49-.55s-.31-.38-.46-.57c-.15-.19-.29-.39-.43-.59-.14-.2-.27-.4-.4-.61-.13-.21-.25-.42-.37-.63-.12-.21-.23-.43-.34-.65-.11-.22-.21-.44-.31-.66-.1-.22-.19-.45-.27-.68-.09-.23-.17-.46-.24-.69-.07-.23-.14-.47-.21-.7-.06-.24-.12-.47-.17-.71-.05-.24-.1-.48-.13-.72-.04-.24-.07-.48-.1-.73-.41-3.69.5-7.56,2.84-10.48.12-.15.25-.29.38-.44.13-.14.26-.28.4-.42.14-.14.27-.27.42-.4.14-.13.29-.25.43-.38.15-.12.3-.24.45-.36.15-.11.31-.23.47-.33.16-.11.32-.21.49-.31.16-.1.33-.19.5-.28.17-.09.34-.18.51-.26.17-.08.35-.16.53-.23.18-.07.36-.14.54-.21.18-.07.36-.13.55-.18.18-.06.37-.11.55-.15.19-.05.37-.09.56-.13.19-.04.38-.07.57-.1.19-.03.38-.05.57-.07,2.66-.29,5.88.4,8,2.11,2.01,1.62,3.35,4.16,3.61,6.72.14,1.42,0,3.79-.94,4.91-.4.48-.92.72-1.54.77-.5.04-1.01-.05-1.4-.39-1.23-1.11-.28-3.6-.36-5.07-.08-1.4-.71-2.6-1.75-3.52-1.32-1.17-3.11-1.53-4.83-1.42-2.09.13-3.97,1.07-5.35,2.65-1.7,1.95-2.27,4.6-2.1,7.13.01.17.03.34.05.51.02.17.04.34.07.51.03.17.06.34.1.51.04.17.08.34.12.5s.09.33.15.5c.05.16.11.33.17.49.06.16.13.32.19.48.07.16.14.31.22.47.08.15.16.31.24.46.08.15.17.3.26.45.09.15.19.29.28.43.1.14.2.28.3.42.1.14.21.27.32.4.11.13.23.26.34.39.12.13.24.25.36.37.12.12.25.24.38.35,2.56,2.22,6.1,3.35,9.48,3.11.22-.02.44-.04.66-.07.22-.03.44-.06.66-.1.22-.04.44-.08.66-.13.22-.05.43-.1.65-.16s.43-.13.64-.2c.21-.07.42-.15.63-.23.21-.08.41-.17.62-.26.2-.09.4-.19.6-.29.2-.1.39-.21.59-.32.19-.11.38-.23.57-.35.19-.12.37-.24.55-.37.18-.13.36-.26.53-.4.17-.14.35-.28.51-.43s.33-.3.49-.45c.16-.15.32-.31.47-.48.15-.16.3-.33.44-.5,1.65-1.92,2.55-4.09,2.96-6.57,1.41-8.57-4.75-11.48-8.67-17.73-2.02-3.22-3.29-7.15-3.57-10.93-.02-.32-.04-.65-.05-.97,0-.32,0-.65,0-.97,0-.32.02-.65.05-.97.02-.32.06-.64.1-.97.04-.32.09-.64.14-.96.06-.32.12-.64.19-.95.07-.32.15-.63.24-.94.09-.31.18-.62.28-.93.1-.31.21-.61.33-.91.12-.3.24-.6.37-.9.13-.3.27-.59.42-.88.15-.29.3-.57.46-.85.16-.28.33-.56.5-.83.17-.27.36-.54.54-.8.19-.26.38-.52.58-.78.2-.25.41-.5.62-.75,4.09-4.74,9.56-7.07,15.73-7.53Z"/>
</svg>