<?xml version="1.0" encoding="UTF-8"?>
<svg id="NETY" xmlns="http://www.w3.org/2000/svg" viewBox="0 0 300 200">
  <defs>
    <style>
      .cls-1 {
        fill: #fff;
      }

      .cls-1, .cls-2 {
        stroke-width: 0px;
      }

      .cls-2 {
        fill: #1ab2ad;
      }
    </style>
  </defs>
  <path class="cls-1" d="M173.9,78.76c1.01.05,5.32-.38,5.62.67.47,1.26.43,4.98-.13,6.18-.64.47-1.94.33-2.71.33-1.21,0-3.61.26-4.64-.35-1.7-1.01-.09-5.2-.55-6.63,0-.02-.02-.04-.02-.06l2.43-.14Z"/>
  <path class="cls-2" d="M45.97,69.97c1.2-.17,9.09,8.47,10.54,9.84.31,3.88.56,5.46-4.03,5.03-1.89.19-9.5-8.58-10.94-10.24,1.2-1.85,2.72-3.26,4.43-4.63Z"/>
  <path class="cls-2" d="M53.08,126.03c.99.02,2.29-.13,3.03.66.88.94.45,3.4.38,4.62l-5.83,5.83c-1.17,1.16-2.33,2.44-3.65,3.43-.49.36-.69.44-1.29.35-1.53-1.42-3.03-2.76-4.12-4.56,1.23-1.9,3.01-3.47,4.59-5.07,1.7-1.72,3.38-3.47,5.15-5.12l1.73-.14Z"/>
  <path class="cls-2" d="M74.63,48.72c1.63-.12,3.24-.06,4.84.24.4,2.26.29,4.64.3,6.94,0,0,0,10.07,0,10.07,0,2.64.3,10.05-.23,12.29-.55.34-1.66.22-2.32.23-.83.06-4.26.35-4.46-.67-.52-2.01-.21-11.81-.21-14.65,0-4.18-.19-8.43,0-12.6.07-1.86.25-1.89,2.08-1.85Z"/>
  <path class="cls-2" d="M76.21,132.44c1.13.03,2.2.15,3.32.33.07.49.11.98.14,1.47.23,4.86.06,9.72.06,14.59,0,3.95.21,8.03-.04,11.97-.03.4-.02,1-.29,1.29-.86.41-2.39.25-3.36.27-1.15,0-2.23-.1-3.34-.4-.27-2.08-.16-4.26-.16-6.36v-9.72c.01-3.16-.4-10.31.23-13.02.6-.56,2.58-.4,3.44-.42Z"/>
  <path class="cls-1" d="M172.8,90.72c1.76-.08,4.97-.48,6.49.22.28.38.29,1.16.33,1.64.34,4.07.07,9.25.07,13.46v8.9c0,1.46.09,2.97-.01,4.42-.02.31-.09.6-.31.84-.39.42-1.19.34-1.71.33-1.67-.03-5.36.94-6.13-1.07-.14-.37-.2-.75-.21-1.15-.11-3.83.09-7.74.09-11.58,0-4.52-.17-9.1-.03-13.62.02-.66.02-1.45.28-2.05.33-.31.7-.3,1.13-.34Z"/>
  <path class="cls-2" d="M248.93,102.12c2.1-.44,9.05-.12,11.63-.12,8.3,0,16.85-.25,25.11,0,1.65.08,2.23-.02,2.27,1.92.04,1,.24,4.17-.44,4.81-.51.48-1.78.31-2.44.29-6.74-.03-29.63,0-35.98.09-.75-.02-1.8.03-2.49-.29,0-.02-.02-.05-.02-.07-.41-1.33,1.68-5.37,2.36-6.65Z"/>
  <path class="cls-2" d="M9.51,101.97c8.1-.08,16.2-.1,24.3-.02,2.97.02,5.95,0,8.92-.03,1.81-.02,3.69-.13,5.5-.01.58.04,1.26.09,1.72.5.69,1.34.54,4.25.19,5.72-.13.54-.31.65-.75.92-3.86.08-39.48.22-40.42-.19-.21-.09-.26-.24-.34-.45-.39-1.08-.47-4.87.07-5.85.23-.41.4-.43.82-.58Z"/>
  <path class="cls-1" d="M158.72,78.76c1.19-.06,3.6-.18,4.55.57.18.4.22.82.25,1.25.33,4.42,0,9.09,0,13.55v16.04c.01,2.33.12,4.67.08,7-.01.54.05,2.63-.3,3.01-.53.58-1.87.43-2.61.45-.98-.05-5.05.4-5.22-.83-.55-2.03-.2-4.65-.18-6.76,0,0,.01-7.77.01-7.77.03-5.23-.05-17.74-.05-22.8.02-.93-.13-2.69.33-3.48.92-.3,2.15-.2,3.12-.23Z"/>
  <path class="cls-1" d="M133.28,84.16c1.62-.07,5.88-.49,7.17.36,1.09.73.27,3.61.5,4.85.5,2.69,5.6.56,7.43,1.8.2.27.26.55.3.87.19,1.28.45,4.27-.4,5.31-.28.35-.71.53-1.15.6-.93.14-2-.07-2.94-.12-1.02-.05-2.01.01-3.03.1-.32,2.47-.83,13.21.13,14.87.59,1.02,5.67.57,7.15.85.34,1.82.26,3.53.16,5.37-.05.5-.04.92-.47,1.24-1.2.89-7.14.18-8.72-.15-6.34-1.33-6.76-6.37-6.79-11.75-.01-2.07-.06-4.16.01-6.23.04-1.11.3-3.01-.31-3.96-1.27-.97-3.52.56-4.68-.81-.98-1.16-.6-4.14-.45-5.56.22-2.04,3.89-.45,5.03-1.5,1-.92.2-3.53.32-4.78.06-.66.21-.96.72-1.38Z"/>
  <path class="cls-1" d="M199.68,78.91c1.42-.12,6.16-.45,7.21.45.23.2.26.65.28.94.11,1.32.3,4.33-.63,5.37-.48.54-5.36.18-6.34.24-.03.09,0,.05-.08.14-.29.33-.55.63-.68,1.06-.22.76-.28,2.39.13,3.06.9,1.47,4.51.15,6,.56.23.06.62.23.74.46.43.83.39,4.69.11,5.63-.83,2.76-4.6.06-6.34,1.13-.43.27-.63.74-.73,1.22-.29,1.46-.07,3.15-.04,4.63.05,2.62.38,13.69-.18,15.69l.08.22c-.21,1.77-7,.67-8.25.45.26-.57.18-20.07-.03-21.74-.96-1.44-3.41.07-4.67-.69-.32-.19-.47-.46-.53-.82-.22-1.3-.51-4.86.32-5.91.83-1.05,2.73.01,3.83-.11,1.61-.18,1.14-3.9,1.36-5.14.59-4.32,4.39-6.51,8.44-6.84Z"/>
  <path class="cls-1" d="M67.73,90.43c1.38-.13,2.85-.05,4.25-.07,6.03-.19,13.43-.94,16.65,5.4.62,1.19,1.01,2.52,1.2,3.85.42,2.96.69,18.24.03,20.35-.18.19-.25.25-.5.34-1.43.46-5.82.55-7.18-.16-.96-1.5.07-16.16-.68-19.77-.28-.76-.64-1.43-1.27-1.96-2.4-2.03-6.85-1.22-9.73-.99-.27,5.17,0,10.47,0,15.65,0,2.2.27,4.93-.32,7.04-.22.26-.39.28-.71.35-1.38.32-5.85.5-7.06-.27-.18-.47-.25-.92-.28-1.42-.23-3.84,0-7.9,0-11.76,0-4.71-.21-9.53,0-14.23.03-.76.17-1.49.34-2.23,1.73-.14,3.54-.08,5.27-.11Z"/>
  <path class="cls-1" d="M212,90.73c1.05-.05,4.05-.45,4.79.27.51.49.94,1.74,1.2,2.4.65,1.65,6.49,18.22,6.49,18.39.31-.27.55-.52.75-.89.84-1.56,1.39-3.46,2-5.14,1.11-3.06,2.24-6.12,3.25-9.21.42-1.27,1.03-4.23,1.85-5.13.5-.56,1.62-.7,2.33-.76,1.12-.09,2.96-.21,3.85.54.25.44.31.91.34,1.42.09,1.46,0,3.53-.34,4.95-.49,2.1-4.99,13.73-6.18,15.1.25,1.11-3.57,9.56-4.33,11.14-.48.95-1.02,1.9-1.71,2.72-2.19,2.63-5.08,3.79-8.42,4.11-1.28.12-4.11.42-5.12-.41-.57-.87-.36-4.18-.22-5.31.04-.32.08-.76.33-1,1-.98,4.52.36,6.77-1.41.36-.32.55-.92.49-1.39.39-1.83-7.87-19.2-8.91-22.93-.4-1.44-1.07-5.78-.26-6.97.26-.39.6-.38,1.02-.47Z"/>
  <path class="cls-1" d="M108.14,90.29c3.7-.36,7.64.39,10.6,2.74,1.34,1.05,2.47,2.37,3.29,3.87,1.42,2.53,2.86,8.18,2.09,10.97-1.22,1.79-16.15-.11-19.23.96-.25.3-.34.67-.33,1.05.24,2.82,3.57,4.17,6.07,4.08,1.95-.06,3.31-.87,4.6-2.25,2.34-.12,4.68-.24,7.02,0,.29.2.43.36.58.67.14,1.27-1.12,3.36-1.86,4.36-1.79,2.41-4.57,3.7-7.48,4.14-8.61,1.44-16.36-3.15-17.58-12.11-1.34-8.82,2.65-17.43,12.23-18.49ZM109.03,97.36c-1.84.48-3.49,1.6-4.45,3.3-.2.35-.27.65-.22,1.06.78,1.82,5.08,1,6.73,1.05,1.2,0,4.24.5,4.35-1.27-.04-.98-1.13-2.14-1.83-2.74-1.26-1.08-2.92-1.63-4.58-1.39Z"/>
</svg>