<?xml version="1.0" encoding="UTF-8"?>
<svg id="semrush" xmlns="http://www.w3.org/2000/svg" viewBox="0 0 300 200">
  <defs>
    <style>
      .cls-1 {
        fill: #fff;
      }

      .cls-1, .cls-2 {
        stroke-width: 0px;
      }

      .cls-2 {
        fill: #ff642d;
      }
    </style>
  </defs>
  <path class="cls-2" d="M65.23,90.23c-3.3-2.15-6.98-3.27-10.95-3.28-4.5,0-9.01,0-13.51,0v-.02c-4.78,0-9.56,0-14.35,0-.36,0-.74-.07-1.07.04-.34.11-.79.35-.87.62-.09.29.12.77.35,1.04.27.32.68.56,1.07.75,2.45,1.24,4.91,2.45,7.35,3.71.59.31,1.69.37,1.54,1.22-.17.92-1.2.5-1.85.51-6.65.03-13.31.02-19.96.02-.71,0-1.54-.09-1.84.75-.27.76.29,1.3.81,1.73,1.77,1.47,3.5,3.02,5.39,4.34,4.49,3.12,9.28,5.74,14.19,8.14.46.22,1.07.43.96,1.07-.13.73-.82.48-1.29.49-2.79.02-5.58,0-8.37.02-.43,0-.89.02-1.3.14-.86.26-1.04.85-.48,1.54.32.39.74.72,1.15,1.04,3.54,2.79,7.56,4.74,11.73,6.35,4.35,1.68,8.83,2.96,13.51,3.4,3.18.3,6.36.47,9.52-.07,4.85-.82,9.05-3,12.02-6.96,4.15-5.53,5.24-11.67,2.83-18.29-1.27-3.49-3.47-6.29-6.55-8.3ZM54.39,117.68c-7.07-.06-12.33-5.47-12.28-12.31-.23-7.02,5.82-12.34,12.35-12.37,6.92-.03,12.58,5.45,12.47,12.25-.11,7.27-5.31,12.49-12.54,12.43Z"/>
  <path class="cls-1" d="M171.13,93.42c-2.67-.02-5.34,0-8.01-.01-.74,0-1.19.24-1.42.98-1.12,3.57-2.28,7.13-3.42,10.69-.82,2.57-1.63,5.14-2.44,7.72h-.31c-.56-1.67-1.13-3.31-1.66-4.98-1.44-4.51-2.87-9.03-4.28-13.55-.18-.58-.52-.85-1.12-.85-2.91,0-5.82,0-8.72,0-.7,0-1.02.33-1.01,1.03,0,.32,0,.64,0,.96,0,6.65,0,13.31,0,19.96,0,.32-.01.64,0,.96.06.87.2,1.03,1.09,1.05,1.11.03,2.23.02,3.35,0,1.35-.01,1.39-.04,1.39-1.43,0-5.42,0-10.84,0-16.25v-1.1c.31.33.43.66.54,1,1.83,5.52,3.66,11.03,5.5,16.55.41,1.23.41,1.24,1.65,1.24,2.15,0,4.3,0,6.45,0,1.26,0,1.3-.06,1.68-1.23,1.8-5.48,3.61-10.97,5.42-16.45.07-.22.2-.42.3-.63.13,3.92.13,7.78.13,11.64,0,1.75,0,3.51,0,5.26,0,1.27.13,1.39,1.34,1.41,1.16.01,2.31.01,3.47,0,1.13-.02,1.22-.1,1.22-1.24,0-7.17,0-14.34,0-21.51,0-1.09-.1-1.19-1.14-1.2Z"/>
  <path class="cls-1" d="M199.61,112.53c-.9-1.09-1.79-2.19-2.74-3.37.52-.2.92-.29,1.24-.49,1.01-.62,2.2-1.1,2.94-1.96,2.23-2.58,2.56-5.59,1.3-8.72-1.23-3.07-3.76-4.45-6.86-4.52-5.73-.14-11.47-.05-17.2-.04-.98,0-1.09.13-1.1,1.12-.02,1.23,0,2.47,0,3.7,0,5.93,0,11.87,0,17.8,0,1.23.08,1.31,1.26,1.33,1.23.01,2.47.02,3.7,0,.99-.02,1.1-.12,1.11-1.11.02-1.87,0-3.74.01-5.62,0-.42.05-.84.08-1.35,2.03,0,3.94-.03,5.84.03.33,0,.74.3.97.58,1.82,2.16,3.64,4.32,5.38,6.55.53.67,1.06.97,1.9.94,1.43-.05,2.87,0,4.3-.02.38,0,.77-.06,1.44-.12-.28-.57-.38-.91-.59-1.17-.98-1.2-2-2.37-3-3.56ZM195.2,104.02c-.3.08-.63.12-.94.12-3.38,0-6.76,0-10.14,0-.23,0-.46-.07-.79-.11v-5.21c.44-.04.82-.09,1.2-.1,3.1,0,6.2,0,9.3,0,.43,0,.88.02,1.3.12,1.27.3,1.94,1.23,1.94,2.63,0,1.32-.64,2.21-1.88,2.54Z"/>
  <path class="cls-1" d="M106.21,104.91c-1.42-.9-2.92-1.49-4.55-1.68-2.77-.32-5.55-.5-8.31-.81-.97-.11-1.99-.27-2.87-.68-1.24-.57-1.2-1.94-.02-2.63.3-.18.66-.32,1-.36,1.38-.17,2.77-.43,4.15-.41,3.64.08,7.23.53,10.58,2.09.34.16.71.24,1.27.42,0-1.45,0-2.67,0-3.89,0-1.72,0-1.71-1.57-2.35-4.51-1.84-9.23-2.06-13.98-1.57-2.62.27-4.99,1.26-6.79,3.37-2.31,2.7-1.94,7.67,1.56,9.54,1.28.68,2.6,1.22,4.04,1.38,2.37.27,4.75.47,7.12.73,1.26.14,2.54.23,3.77.53,1.3.32,1.66,1.79.66,2.71-.47.43-1.15.73-1.78.89-.88.21-1.81.29-2.72.33-4.27.18-8.3-.75-12.1-2.72-.49-.25-.98-.49-1.78-.89,0,1.7.06,3.09-.02,4.47-.06.99.33,1.51,1.19,1.95,4.92,2.54,10.11,3.26,15.53,2.4,2.58-.41,4.85-1.46,6.68-3.41,1.91-2.05,2.41-7.2-1.07-9.41Z"/>
  <path class="cls-1" d="M257.83,105.12c-1.44-1.09-3.08-1.69-4.84-1.89-2.77-.31-5.55-.49-8.31-.8-.97-.11-1.94-.36-2.87-.68-.59-.2-.92-.76-.88-1.43.04-.68.45-1.13,1.07-1.3.84-.24,1.7-.48,2.56-.53,1.42-.09,2.86-.07,4.28-.03,2.97.09,5.84.69,8.56,1.94.35.16.72.29,1.33.53.05-.62.1-1,.1-1.39.01-1-.05-2,.02-2.99.07-.96-.35-1.4-1.2-1.77-4.6-2-9.43-2.22-14.31-1.76-2.68.25-5.01,1.34-6.91,3.4-2.03,2.19-1.98,7.31,1.11,9.21,1.39.85,2.84,1.46,4.43,1.67,2.32.3,4.67.48,7,.74,1.34.15,2.68.31,4.01.53.63.11,1.05.54,1.17,1.21.12.69-.07,1.3-.66,1.67-.5.31-1.05.6-1.61.72-.89.19-1.81.29-2.72.33-4.36.19-8.46-.79-12.31-2.81-.44-.23-.9-.42-1.57-.73,0,1.67.04,3.1-.02,4.52-.04.88.3,1.37,1.06,1.78,2.74,1.48,5.65,2.3,8.74,2.63,3.05.33,6.06.26,8.97-.71,3.16-1.05,5.65-2.85,6.05-6.49.24-2.23-.37-4.17-2.24-5.59Z"/>
  <path class="cls-1" d="M133.06,112.23c-4.54,0-9.08,0-13.62,0-.46,0-.92-.05-1.4-.08v-4.34h2.07c4.18,0,8.36,0,12.55,0,1.54,0,1.56-.02,1.57-1.5,0-.72,0-1.43,0-2.15,0-1.45-.03-1.48-1.47-1.48-4.42,0-8.84,0-13.26,0-.46,0-.93-.04-1.53-.07,0-.94,0-1.77,0-2.59.01-1.29.02-1.31,1.36-1.31,4.46,0,8.92,0,13.38,0,.32,0,.64,0,.96-.01.52-.01.82-.25.82-.8,0-1.23,0-2.47,0-3.7,0-.49-.27-.73-.74-.75-.24-.01-.48-.02-.72-.02-6.45,0-12.9,0-19.36,0-.24,0-.48,0-.72.01-.52.01-.82.24-.81.8,0,.28,0,.56,0,.84,0,6.89,0,13.78,0,20.67,0,.28.01.56,0,.84,0,.55.29.79.81.8.28,0,.56.01.84.01,6.33,0,12.67,0,19,0,.28,0,.56-.01.84,0,.59,0,.87-.28.87-.88,0-.96,0-1.91,0-2.87,0-1.36-.04-1.39-1.42-1.4Z"/>
  <path class="cls-1" d="M288.96,94.73c0-1.23-.08-1.3-1.27-1.32-1.08-.01-2.15-.02-3.23,0-1.16.02-1.29.15-1.3,1.33-.02,2.11,0,4.22-.01,6.33,0,.42-.07.84-.11,1.3h-13.71c0-.55,0-.98,0-1.4,0-2.11,0-4.22,0-6.33,0-1.12-.1-1.21-1.24-1.23-1.11-.02-2.23,0-3.35,0-1.62,0-1.65.04-1.66,1.69,0,.08,0,.16,0,.24,0,6.69,0,13.38,0,20.07,0,.32,0,.64,0,.96,0,.69.32,1.01,1.02,1.01,1.35-.02,2.71.01,4.06,0,1.04-.01,1.14-.12,1.15-1.19.01-2.23,0-4.46,0-6.69,0-.42.05-.85.08-1.32h13.66c.03.5.08.93.08,1.35,0,2.19,0,4.38.01,6.57,0,1.12.16,1.26,1.23,1.28,1.15.02,2.31.02,3.46,0,.97-.02,1.08-.13,1.09-1.13.02-1.23,0-2.47,0-3.7,0-5.93,0-11.87,0-17.8Z"/>
  <path class="cls-1" d="M230.54,93.42c-1.39,0-2.79,0-4.18,0-.67,0-.93.33-.9.97.02.28,0,.56,0,.84,0,3.55.03,7.09,0,10.64-.04,3.58-2.05,6.05-5.35,6.59-1.39.23-2.81.18-4.13-.3-1.9-.69-3.25-2.02-3.72-4.04-.23-1-.29-2.05-.3-3.08-.04-3.43,0-6.85-.02-10.28,0-1.19-.13-1.31-1.29-1.33-1.19-.02-2.39-.02-3.59,0-1.05.02-1.16.12-1.17,1.18-.02,2.03,0,4.06,0,6.09.02,0,.03,0,.05,0,0,2.03-.08,4.07.02,6.09.26,5.45,3.81,9.64,9.11,10.88,2.2.51,4.42.56,6.64.15,5.4-.98,9.09-4.6,9.58-10.12.39-4.39.2-8.83.27-13.24.01-.69-.3-1.04-1-1.03Z"/>
  <path class="cls-2" d="M64.4,104.69c-.03-1.53-.52-3.01-1.34-4.31-.27-.43-.59-.85-.93-1.24-.39-.44-.82-.86-1.29-1.23-1.63-1.31-3.67-2.13-5.78-2.17-1.62-.03-1.98.86-1.87,2.2.09,1.13.53,1.53,1.78,1.71,2.73.39,4.33,1.99,5.03,4.59.11.42.15.87.3,1.28.12.33.26.73.53.9.91.57,1.9.52,2.87.13.32-.13.5-.32.6-.55.04-.1.07-.2.09-.3.05-.32.02-.67.03-1Z"/>
</svg>