<?xml version="1.0" encoding="UTF-8"?>
<svg id="TRELLO" xmlns="http://www.w3.org/2000/svg" xmlns:xlink="http://www.w3.org/1999/xlink" viewBox="0 0 300 200">
  <defs>
    <style>
      .cls-1 {
        fill: url(#Gradiente_sem_nome_2);
      }

      .cls-1, .cls-2 {
        stroke-width: 0px;
      }

      .cls-2 {
        fill: #fff;
      }
    </style>
    <linearGradient id="Gradiente_sem_nome_2" data-name="Gradiente sem nome 2" x1="38.21" y1="72.85" x2="38.21" y2="121.02" gradientTransform="translate(0 202) scale(1 -1)" gradientUnits="userSpaceOnUse">
      <stop offset="0" stop-color="#0052cc"/>
      <stop offset="1" stop-color="#2684ff"/>
    </linearGradient>
  </defs>
  <path class="cls-2" d="M136.35,93.92c.65-.06,1.29-.04,1.94-.04.02.03.03.04.04.07.21.37.23,9.54.02,10.32-2.23-.28-5.31-.2-7.32.88-1.23.66-2.04,1.72-2.46,3.03-.68,2.15-.39,6.53-.38,8.95v8.36c0,1.06.22,2.87-.09,3.84,0,.02-.01.04-.02.06h-9.95c.05-.07.09-.15.11-.24.15-.54.15-3.79-.13-4.23.05-.09.1-.18.13-.28.2-.72.04-6.56.04-7.69,0-7.3.13-14.62,0-21.92,0-.26-.01-.45-.15-.68h9.93s.04.07.05.11c.22.53.17,6.02-.07,6.6.4-.34,1.44-2.69,1.99-3.45,1.6-2.21,3.67-3.29,6.32-3.72Z"/>
  <path class="cls-2" d="M181.87,80.93c1.05-.19,2.3-.07,3.36-.07h6.63c.12.18.14.35.15.55.16,3.18,0,6.44,0,9.63v19.54s-.01,4.8-.01,4.8c0,1.03-.07,2.1.09,3.12.11.67.32,1.21.9,1.62.94.67,2.33.69,3.43.5.02.02.03.05.04.07.14.25.24,8.11.09,8.46-.05.12-.23.14-.35.17-1.86.66-5.31.41-7.21-.05-2.52-.6-4.77-2.07-5.88-4.48-.13-.28-.24-.56-.35-.85-.11-.29-.2-.58-.28-.87-.08-.29-.15-.59-.21-.89-.06-.3-.11-.6-.14-.91-.34-2.79-.12-6.33-.12-9.19v-26.22c0-1.42.07-2.86,0-4.28-.01-.26-.03-.45-.17-.67Z"/>
  <path class="cls-2" d="M202.7,80.93c1.15-.17,2.43-.07,3.6-.07h6.35c.11.2.15.35.17.57.06,1.11.01,2.24.01,3.35v6.35s-.01,19.63-.01,19.63v4.64c0,1.01-.06,2.06.1,3.06.11.68.3,1.24.89,1.66.96.69,2.37.69,3.48.51.27.41.27,7.75.13,8.59l-.32.11c-2.05.72-6.21.36-8.25-.33-2.64-.9-4.43-2.69-5.34-5.31-1.04-3.01-.66-6.67-.66-9.81v-8.29s0-18.36,0-18.36c0-1.25.24-5.52-.14-6.29Z"/>
  <path class="cls-2" d="M81.59,84.4h32.81c.05.08.09.17.12.26.16.59.11,7.69.02,8.7-.01.16-.07.29-.15.43h-11.11c.05.08.1.17.12.27.2.74.04,5.3.04,6.43,0,5.74.15,11.53,0,17.27,0,.25-.03.42-.16.64.04.06.07.12.1.18.2.51.18,10.29-.07,10.83h-10.72c.03-.09.07-.18.09-.28.18-.74.04-1.81.04-2.59v-6.08c0-8.6.14-17.23,0-25.83,0-.3.01-.56-.15-.83h-10.98v-9.39Z"/>
  <path class="cls-2" d="M157.58,93.73c1.23-.08,2.46-.13,3.7-.01,3.87.35,7.71,2.07,10.23,5.1.06.07.12.14.18.22.06.07.12.15.17.22.06.07.11.15.17.23.05.08.11.15.16.23.05.08.11.15.16.23.05.08.1.16.15.24s.1.16.15.24c.05.08.09.16.14.24.05.08.09.16.13.25.04.08.09.17.13.25.04.08.08.17.12.25.04.09.08.17.11.26.04.09.07.17.11.26.03.09.07.17.1.26.03.09.06.18.09.26.03.09.06.18.09.27.03.09.06.18.08.27.03.09.05.18.08.27.02.09.05.18.07.27.02.09.04.18.06.27.02.09.04.18.06.28.02.09.03.18.05.28.02.09.03.19.04.28.01.09.02.19.04.28.01.09.02.19.03.28,0,.09.01.19.02.28,0,.09.01.19.01.28,0,.09,0,.19,0,.28s0,.19,0,.28c0,.09,0,.19,0,.28,0,.09,0,.19-.01.28,0,.09-.01.19-.02.28-.2,2.17-1.09,4.11-2.79,5.51-4.75,3.93-13.94,2.89-19.66,2.35.17.16.2.41.26.62.62,2.15,1.52,3.78,3.56,4.9,4.99,2.74,12.3.62,17.34-.86l.1.08c0,.31-.02.52-.17.8.03.05.06.11.09.17.2.48.14,6.83-.05,7.3-1.06.72-5.11,1.5-6.45,1.7-5.88.88-13.25.49-18.2-3.18-3.39-2.52-5.15-6.31-5.76-10.42-.8-5.46.03-11.45,3.4-15.96,2.94-3.94,6.99-5.75,11.75-6.44ZM158.87,101.32c-2.13.35-3.97,1.24-5.26,3.03-.66.92-1.12,2.02-1.46,3.11-.19.63-.16,1.86-.55,2.33,1.82.22,3.67.47,5.5.41,2.14-.02,4.84-.23,6.42-1.84.69-.7,1.05-1.62,1.04-2.61,0-.07,0-.14,0-.21,0-.07-.01-.14-.02-.21,0-.07-.02-.14-.03-.21-.01-.07-.03-.14-.04-.21-.02-.07-.03-.14-.05-.21-.02-.07-.04-.14-.06-.2-.02-.07-.04-.13-.07-.2-.03-.07-.05-.13-.08-.2-.03-.06-.06-.13-.09-.19-.03-.06-.06-.13-.1-.19-.03-.06-.07-.12-.11-.18-.04-.06-.08-.12-.12-.18-.04-.06-.08-.11-.13-.17-.04-.06-.09-.11-.13-.16-.05-.05-.09-.11-.14-.16-.05-.05-.1-.1-.15-.15-1.04-1-2.5-1.46-3.93-1.43-.15,0-.29.01-.44.03Z"/>
  <path class="cls-2" d="M237.24,93.73h.1c4.6-.35,9.35.58,12.92,3.64,3.62,3.1,5.31,7.73,5.66,12.39.4,5.29-.62,11.04-4.17,15.16-2.81,3.26-6.71,4.9-10.95,5.23-.02,0-.06.01-.08.02-.68.11-1.49.07-2.19.05-3.51-.11-6.99-1.12-9.8-3.27-3.72-2.86-5.7-7.23-6.29-11.8-.69-5.27.18-11.23,3.49-15.52,2.85-3.7,6.77-5.3,11.3-5.88ZM238.53,102.55c-1.93.25-3.43.87-4.64,2.44-1.89,2.45-2.19,6.11-1.79,9.1.3,2.23,1.15,4.54,3,5.95,1.27.96,2.76,1.3,4.33,1.26,1.73-.04,3.29-.61,4.51-1.88,1.98-2.08,2.43-5.31,2.35-8.07-.07-2.54-.67-5.36-2.6-7.16-1.33-1.24-3.09-1.72-4.88-1.65-.09,0-.19,0-.28.02Z"/>
  <path class="cls-1" d="M18.9,80.9c1.72-.2,3.63-.04,5.36-.04h10.76s14.48,0,14.48,0c2.49,0,5.09-.16,7.57.03.93.07,1.91.33,2.7.83.08.05.16.1.23.16.08.05.15.11.23.17.07.06.15.12.22.18.07.06.14.13.21.19.07.07.14.13.2.2.07.07.13.14.19.21.06.07.12.14.18.22.06.07.11.15.17.23.05.08.11.16.16.23.05.08.1.16.15.24.05.08.09.16.13.25.04.08.08.17.12.26.04.09.08.17.11.26.03.09.07.18.1.27.03.09.06.18.08.27.03.09.05.18.07.27.4,1.79.17,4.87.16,6.79v12.28s0,12.91,0,12.91c0,2.19.15,4.49-.03,6.66-.08,1.01-.39,1.99-.94,2.84-.92,1.42-2.31,2.17-3.93,2.52-2.05.23-4.27.07-6.34.07h-12.15s-13.11,0-13.11,0c-2.19,0-4.49.17-6.67-.02-1.02-.09-2.02-.41-2.88-.98-1.3-.87-2.13-2.22-2.43-3.75-.28-1.45-.1-3.23-.1-4.72v-9.66s0-15.99,0-15.99c0-2.6-.17-5.46.04-8.04.09-1.1.31-1.92.94-2.83.96-1.41,2.36-2.19,4-2.5ZM24.47,89.82c-.59.22-.94.46-1.34.95-.45,1.6-.21,3.91-.21,5.59v7.6s0,7.81,0,7.81c0,1.35-.06,2.72.02,4.07.02.34.07.62.24.92.27.48.6.7,1.12.85,1.13.31,7.73.24,9.1.1.58-.25,1.1-.55,1.34-1.17.26-.66.21-24.97-.03-25.51-.2-.45-.51-.83-.99-1.01-1.11-.41-7.74-.28-9.24-.2ZM43.15,89.82c-.6.22-1.09.47-1.38,1.08-.12.26-.17.52-.18.8-.1,1.56-.18,12.99.13,13.77.16.4.54.81.94.98,1.1.45,7.73.25,9.29.22.6-.19,1.1-.47,1.39-1.06.12-.24.16-.5.18-.76.09-1.48.11-13.09-.14-13.77-.15-.42-.47-.82-.88-1.01-1.09-.49-7.83-.33-9.35-.25Z"/>
</svg>